<?xml version="1.0" encoding="UTF-8"?>
<svg version="1.1" xmlns="http://www.w3.org/2000/svg" width="3300" height="2200" viewBox="0 0 3300 2200">
  <g id="Notes">
    <rect id="artboard" x="0" y="0" width="3300" height="2200" fill="white"/>
    <text id="template-version" style="stroke:none;fill:black;font-family:sans-serif;font-size:13;text-anchor:end;" transform="matrix(1 0 0 1 3036 1933)">Template v.2.0</text>
    <text id="descriptive-name" style="stroke:none;fill:black;font-family:sans-serif;font-size:13;text-anchor:end;" transform="matrix(1 0 0 1 3036 1953)">expo</text>
    <text x="759.87" y="400" text-anchor="middle" font-size="12" fill="#000000">Ultralight</text>
    <text x="1056.58" y="400" text-anchor="middle" font-size="12" fill="#000000">Thin</text>
    <text x="1353.29" y="400" text-anchor="middle" font-size="12" fill="#000000">Light</text>
    <text x="1650.00" y="400" text-anchor="middle" font-size="12" fill="#000000">Regular</text>
    <text x="1946.71" y="400" text-anchor="middle" font-size="12" fill="#000000">Medium</text>
    <text x="2243.42" y="400" text-anchor="middle" font-size="12" fill="#000000">Semibold</text>
    <text x="2540.13" y="400" text-anchor="middle" font-size="12" fill="#000000">Bold</text>
    <text x="2836.84" y="400" text-anchor="middle" font-size="12" fill="#000000">Heavy</text>
    <text x="3133.55" y="400" text-anchor="middle" font-size="12" fill="#000000">Black</text>
    <text x="200" y="660.77" text-anchor="middle" font-size="12" fill="#000000">S</text>
    <text x="200" y="1090.77" text-anchor="middle" font-size="12" fill="#000000">M</text>
    <text x="200" y="1520.77" text-anchor="middle" font-size="12" fill="#000000">L</text>
  </g>
  <g id="Guides">
    <line id="Baseline-S" x1="0" y1="696" x2="3300" y2="696" stroke="#27AAE1" stroke-width="0.5"/>
    <line id="Capline-S" x1="0" y1="625.541" x2="3300" y2="625.541" stroke="#27AAE1" stroke-width="0.5"/>
    <line id="Baseline-M" x1="0" y1="1126" x2="3300" y2="1126" stroke="#27AAE1" stroke-width="0.5"/>
    <line id="Capline-M" x1="0" y1="1055.54" x2="3300" y2="1055.54" stroke="#27AAE1" stroke-width="0.5"/>
    <line id="Baseline-L" x1="0" y1="1556" x2="3300" y2="1556" stroke="#27AAE1" stroke-width="0.5"/>
    <line id="Capline-L" x1="0" y1="1485.54" x2="3300" y2="1485.54" stroke="#27AAE1" stroke-width="0.5"/>
    <line id="left-margin" x1="1593.69" y1="0" x2="1593.69" y2="2200" stroke="#27AAE1" stroke-width="0.5"/>
    <line id="right-margin" x1="1706.31" y1="0" x2="1706.31" y2="2200" stroke="#27AAE1" stroke-width="0.5"/>
  </g>
  <g id="Symbols">
    <g id="Ultralight-S" transform="matrix(3.86790552083333 0 0 3.86790552083333 713.4551 614.3556)">
      <path d="M0 20.084c.043.53.23 1.063.718 1.778.58.849 1.576 1.315 2.303.567.49-.505 5.794-9.776 8.35-13.29a.761.761 0 011.248 0c2.556 3.514 7.86 12.785 8.35 13.29.727.748 1.723.282 2.303-.567.57-.835.728-1.42.728-2.046 0-.426-8.26-15.798-9.092-17.078-.8-1.23-1.044-1.498-2.397-1.542h-1.032c-1.353.044-1.597.311-2.398 1.542C8.267 3.991.33 18.758 0 19.77Z"/>
    </g>
    <g id="Ultralight-M" transform="matrix(3.8679604166666683 0 0 3.8679604166666683 713.4545 1044.3545)">
      <path d="M0 20.084c.043.53.23 1.063.718 1.778.58.849 1.576 1.315 2.303.567.49-.505 5.794-9.776 8.35-13.29a.761.761 0 011.248 0c2.556 3.514 7.86 12.785 8.35 13.29.727.748 1.723.282 2.303-.567.57-.835.728-1.42.728-2.046 0-.426-8.26-15.798-9.092-17.078-.8-1.23-1.044-1.498-2.397-1.542h-1.032c-1.353.044-1.597.311-2.398 1.542C8.267 3.991.33 18.758 0 19.77Z"/>
    </g>
    <g id="Ultralight-L" transform="matrix(3.8679604166666683 0 0 3.8679604166666683 713.4545 1474.3545)">
      <path d="M0 20.084c.043.53.23 1.063.718 1.778.58.849 1.576 1.315 2.303.567.49-.505 5.794-9.776 8.35-13.29a.761.761 0 011.248 0c2.556 3.514 7.86 12.785 8.35 13.29.727.748 1.723.282 2.303-.567.57-.835.728-1.42.728-2.046 0-.426-8.26-15.798-9.092-17.078-.8-1.23-1.044-1.498-2.397-1.542h-1.032c-1.353.044-1.597.311-2.398 1.542C8.267 3.991.33 18.758 0 19.77Z"/>
    </g>
    <g id="Thin-S" transform="matrix(4.01763089583333 0 0 4.01763089583333 1008.3684 612.5589)">
      <path d="M0 20.084c.043.53.23 1.063.718 1.778.58.849 1.576 1.315 2.303.567.49-.505 5.794-9.776 8.35-13.29a.761.761 0 011.248 0c2.556 3.514 7.86 12.785 8.35 13.29.727.748 1.723.282 2.303-.567.57-.835.728-1.42.728-2.046 0-.426-8.26-15.798-9.092-17.078-.8-1.23-1.044-1.498-2.397-1.542h-1.032c-1.353.044-1.597.311-2.398 1.542C8.267 3.991.33 18.758 0 19.77Z"/>
    </g>
    <g id="Thin-M" transform="matrix(4.017687916666668 0 0 4.017687916666668 1008.3677 1042.5577)">
      <path d="M0 20.084c.043.53.23 1.063.718 1.778.58.849 1.576 1.315 2.303.567.49-.505 5.794-9.776 8.35-13.29a.761.761 0 011.248 0c2.556 3.514 7.86 12.785 8.35 13.29.727.748 1.723.282 2.303-.567.57-.835.728-1.42.728-2.046 0-.426-8.26-15.798-9.092-17.078-.8-1.23-1.044-1.498-2.397-1.542h-1.032c-1.353.044-1.597.311-2.398 1.542C8.267 3.991.33 18.758 0 19.77Z"/>
    </g>
    <g id="Thin-L" transform="matrix(4.017687916666668 0 0 4.017687916666668 1008.3677 1472.5577)">
      <path d="M0 20.084c.043.53.23 1.063.718 1.778.58.849 1.576 1.315 2.303.567.49-.505 5.794-9.776 8.35-13.29a.761.761 0 011.248 0c2.556 3.514 7.86 12.785 8.35 13.29.727.748 1.723.282 2.303-.567.57-.835.728-1.42.728-2.046 0-.426-8.26-15.798-9.092-17.078-.8-1.23-1.044-1.498-2.397-1.542h-1.032c-1.353.044-1.597.311-2.398 1.542C8.267 3.991.33 18.758 0 19.77Z"/>
    </g>
    <g id="Light-S" transform="matrix(4.16735627083333 0 0 4.16735627083333 1303.2817 610.7622)">
      <path d="M0 20.084c.043.53.23 1.063.718 1.778.58.849 1.576 1.315 2.303.567.49-.505 5.794-9.776 8.35-13.29a.761.761 0 011.248 0c2.556 3.514 7.86 12.785 8.35 13.29.727.748 1.723.282 2.303-.567.57-.835.728-1.42.728-2.046 0-.426-8.26-15.798-9.092-17.078-.8-1.23-1.044-1.498-2.397-1.542h-1.032c-1.353.044-1.597.311-2.398 1.542C8.267 3.991.33 18.758 0 19.77Z"/>
    </g>
    <g id="Light-M" transform="matrix(4.167415416666668 0 0 4.167415416666668 1303.2810 1040.7610)">
      <path d="M0 20.084c.043.53.23 1.063.718 1.778.58.849 1.576 1.315 2.303.567.49-.505 5.794-9.776 8.35-13.29a.761.761 0 011.248 0c2.556 3.514 7.86 12.785 8.35 13.29.727.748 1.723.282 2.303-.567.57-.835.728-1.42.728-2.046 0-.426-8.26-15.798-9.092-17.078-.8-1.23-1.044-1.498-2.397-1.542h-1.032c-1.353.044-1.597.311-2.398 1.542C8.267 3.991.33 18.758 0 19.77Z"/>
    </g>
    <g id="Light-L" transform="matrix(4.167415416666668 0 0 4.167415416666668 1303.2810 1470.7610)">
      <path d="M0 20.084c.043.53.23 1.063.718 1.778.58.849 1.576 1.315 2.303.567.49-.505 5.794-9.776 8.35-13.29a.761.761 0 011.248 0c2.556 3.514 7.86 12.785 8.35 13.29.727.748 1.723.282 2.303-.567.57-.835.728-1.42.728-2.046 0-.426-8.26-15.798-9.092-17.078-.8-1.23-1.044-1.498-2.397-1.542h-1.032c-1.353.044-1.597.311-2.398 1.542C8.267 3.991.33 18.758 0 19.77Z"/>
    </g>
    <g id="Regular-S" transform="matrix(4.31708164583333 0 0 4.31708164583333 1598.1950 608.9655)">
      <path d="M0 20.084c.043.53.23 1.063.718 1.778.58.849 1.576 1.315 2.303.567.49-.505 5.794-9.776 8.35-13.29a.761.761 0 011.248 0c2.556 3.514 7.86 12.785 8.35 13.29.727.748 1.723.282 2.303-.567.57-.835.728-1.42.728-2.046 0-.426-8.26-15.798-9.092-17.078-.8-1.23-1.044-1.498-2.397-1.542h-1.032c-1.353.044-1.597.311-2.398 1.542C8.267 3.991.33 18.758 0 19.77Z"/>
    </g>
    <g id="Regular-M" transform="matrix(4.317142916666668 0 0 4.317142916666668 1598.1943 1038.9643)">
      <path d="M0 20.084c.043.53.23 1.063.718 1.778.58.849 1.576 1.315 2.303.567.49-.505 5.794-9.776 8.35-13.29a.761.761 0 011.248 0c2.556 3.514 7.86 12.785 8.35 13.29.727.748 1.723.282 2.303-.567.57-.835.728-1.42.728-2.046 0-.426-8.26-15.798-9.092-17.078-.8-1.23-1.044-1.498-2.397-1.542h-1.032c-1.353.044-1.597.311-2.398 1.542C8.267 3.991.33 18.758 0 19.77Z"/>
    </g>
    <g id="Regular-L" transform="matrix(4.317142916666668 0 0 4.317142916666668 1598.1943 1468.9643)">
      <path d="M0 20.084c.043.53.23 1.063.718 1.778.58.849 1.576 1.315 2.303.567.49-.505 5.794-9.776 8.35-13.29a.761.761 0 011.248 0c2.556 3.514 7.86 12.785 8.35 13.29.727.748 1.723.282 2.303-.567.57-.835.728-1.42.728-2.046 0-.426-8.26-15.798-9.092-17.078-.8-1.23-1.044-1.498-2.397-1.542h-1.032c-1.353.044-1.597.311-2.398 1.542C8.267 3.991.33 18.758 0 19.77Z"/>
    </g>
    <g id="Medium-S" transform="matrix(4.466807020833329 0 0 4.466807020833329 1893.1083 607.1688)">
      <path d="M0 20.084c.043.53.23 1.063.718 1.778.58.849 1.576 1.315 2.303.567.49-.505 5.794-9.776 8.35-13.29a.761.761 0 011.248 0c2.556 3.514 7.86 12.785 8.35 13.29.727.748 1.723.282 2.303-.567.57-.835.728-1.42.728-2.046 0-.426-8.26-15.798-9.092-17.078-.8-1.23-1.044-1.498-2.397-1.542h-1.032c-1.353.044-1.597.311-2.398 1.542C8.267 3.991.33 18.758 0 19.77Z"/>
    </g>
    <g id="Medium-M" transform="matrix(4.466870416666668 0 0 4.466870416666668 1893.1076 1037.1676)">
      <path d="M0 20.084c.043.53.23 1.063.718 1.778.58.849 1.576 1.315 2.303.567.49-.505 5.794-9.776 8.35-13.29a.761.761 0 011.248 0c2.556 3.514 7.86 12.785 8.35 13.29.727.748 1.723.282 2.303-.567.57-.835.728-1.42.728-2.046 0-.426-8.26-15.798-9.092-17.078-.8-1.23-1.044-1.498-2.397-1.542h-1.032c-1.353.044-1.597.311-2.398 1.542C8.267 3.991.33 18.758 0 19.77Z"/>
    </g>
    <g id="Medium-L" transform="matrix(4.466870416666668 0 0 4.466870416666668 1893.1076 1467.1676)">
      <path d="M0 20.084c.043.53.23 1.063.718 1.778.58.849 1.576 1.315 2.303.567.49-.505 5.794-9.776 8.35-13.29a.761.761 0 011.248 0c2.556 3.514 7.86 12.785 8.35 13.29.727.748 1.723.282 2.303-.567.57-.835.728-1.42.728-2.046 0-.426-8.26-15.798-9.092-17.078-.8-1.23-1.044-1.498-2.397-1.542h-1.032c-1.353.044-1.597.311-2.398 1.542C8.267 3.991.33 18.758 0 19.77Z"/>
    </g>
    <g id="Semibold-S" transform="matrix(4.61653239583333 0 0 4.61653239583333 2188.0216 605.3721)">
      <path d="M0 20.084c.043.53.23 1.063.718 1.778.58.849 1.576 1.315 2.303.567.49-.505 5.794-9.776 8.35-13.29a.761.761 0 011.248 0c2.556 3.514 7.86 12.785 8.35 13.29.727.748 1.723.282 2.303-.567.57-.835.728-1.42.728-2.046 0-.426-8.26-15.798-9.092-17.078-.8-1.23-1.044-1.498-2.397-1.542h-1.032c-1.353.044-1.597.311-2.398 1.542C8.267 3.991.33 18.758 0 19.77Z"/>
    </g>
    <g id="Semibold-M" transform="matrix(4.616597916666669 0 0 4.616597916666669 2188.0208 1035.3708)">
      <path d="M0 20.084c.043.53.23 1.063.718 1.778.58.849 1.576 1.315 2.303.567.49-.505 5.794-9.776 8.35-13.29a.761.761 0 011.248 0c2.556 3.514 7.86 12.785 8.35 13.29.727.748 1.723.282 2.303-.567.57-.835.728-1.42.728-2.046 0-.426-8.26-15.798-9.092-17.078-.8-1.23-1.044-1.498-2.397-1.542h-1.032c-1.353.044-1.597.311-2.398 1.542C8.267 3.991.33 18.758 0 19.77Z"/>
    </g>
    <g id="Semibold-L" transform="matrix(4.616597916666669 0 0 4.616597916666669 2188.0208 1465.3708)">
      <path d="M0 20.084c.043.53.23 1.063.718 1.778.58.849 1.576 1.315 2.303.567.49-.505 5.794-9.776 8.35-13.29a.761.761 0 011.248 0c2.556 3.514 7.86 12.785 8.35 13.29.727.748 1.723.282 2.303-.567.57-.835.728-1.42.728-2.046 0-.426-8.26-15.798-9.092-17.078-.8-1.23-1.044-1.498-2.397-1.542h-1.032c-1.353.044-1.597.311-2.398 1.542C8.267 3.991.33 18.758 0 19.77Z"/>
    </g>
    <g id="Bold-S" transform="matrix(4.766257770833329 0 0 4.766257770833329 2482.9349 603.5754)">
      <path d="M0 20.084c.043.53.23 1.063.718 1.778.58.849 1.576 1.315 2.303.567.49-.505 5.794-9.776 8.35-13.29a.761.761 0 011.248 0c2.556 3.514 7.86 12.785 8.35 13.29.727.748 1.723.282 2.303-.567.57-.835.728-1.42.728-2.046 0-.426-8.26-15.798-9.092-17.078-.8-1.23-1.044-1.498-2.397-1.542h-1.032c-1.353.044-1.597.311-2.398 1.542C8.267 3.991.33 18.758 0 19.77Z"/>
    </g>
    <g id="Bold-M" transform="matrix(4.766325416666668 0 0 4.766325416666668 2482.9341 1033.5741)">
      <path d="M0 20.084c.043.53.23 1.063.718 1.778.58.849 1.576 1.315 2.303.567.49-.505 5.794-9.776 8.35-13.29a.761.761 0 011.248 0c2.556 3.514 7.86 12.785 8.35 13.29.727.748 1.723.282 2.303-.567.57-.835.728-1.42.728-2.046 0-.426-8.26-15.798-9.092-17.078-.8-1.23-1.044-1.498-2.397-1.542h-1.032c-1.353.044-1.597.311-2.398 1.542C8.267 3.991.33 18.758 0 19.77Z"/>
    </g>
    <g id="Bold-L" transform="matrix(4.766325416666668 0 0 4.766325416666668 2482.9341 1463.5741)">
      <path d="M0 20.084c.043.53.23 1.063.718 1.778.58.849 1.576 1.315 2.303.567.49-.505 5.794-9.776 8.35-13.29a.761.761 0 011.248 0c2.556 3.514 7.86 12.785 8.35 13.29.727.748 1.723.282 2.303-.567.57-.835.728-1.42.728-2.046 0-.426-8.26-15.798-9.092-17.078-.8-1.23-1.044-1.498-2.397-1.542h-1.032c-1.353.044-1.597.311-2.398 1.542C8.267 3.991.33 18.758 0 19.77Z"/>
    </g>
    <g id="Heavy-S" transform="matrix(4.915983145833329 0 0 4.915983145833329 2777.8482 601.7787)">
      <path d="M0 20.084c.043.53.23 1.063.718 1.778.58.849 1.576 1.315 2.303.567.49-.505 5.794-9.776 8.35-13.29a.761.761 0 011.248 0c2.556 3.514 7.86 12.785 8.35 13.29.727.748 1.723.282 2.303-.567.57-.835.728-1.42.728-2.046 0-.426-8.26-15.798-9.092-17.078-.8-1.23-1.044-1.498-2.397-1.542h-1.032c-1.353.044-1.597.311-2.398 1.542C8.267 3.991.33 18.758 0 19.77Z"/>
    </g>
    <g id="Heavy-M" transform="matrix(4.916052916666668 0 0 4.916052916666668 2777.8474 1031.7774)">
      <path d="M0 20.084c.043.53.23 1.063.718 1.778.58.849 1.576 1.315 2.303.567.49-.505 5.794-9.776 8.35-13.29a.761.761 0 011.248 0c2.556 3.514 7.86 12.785 8.35 13.29.727.748 1.723.282 2.303-.567.57-.835.728-1.42.728-2.046 0-.426-8.26-15.798-9.092-17.078-.8-1.23-1.044-1.498-2.397-1.542h-1.032c-1.353.044-1.597.311-2.398 1.542C8.267 3.991.33 18.758 0 19.77Z"/>
    </g>
    <g id="Heavy-L" transform="matrix(4.916052916666668 0 0 4.916052916666668 2777.8474 1461.7774)">
      <path d="M0 20.084c.043.53.23 1.063.718 1.778.58.849 1.576 1.315 2.303.567.49-.505 5.794-9.776 8.35-13.29a.761.761 0 011.248 0c2.556 3.514 7.86 12.785 8.35 13.29.727.748 1.723.282 2.303-.567.57-.835.728-1.42.728-2.046 0-.426-8.26-15.798-9.092-17.078-.8-1.23-1.044-1.498-2.397-1.542h-1.032c-1.353.044-1.597.311-2.398 1.542C8.267 3.991.33 18.758 0 19.77Z"/>
    </g>
    <g id="Black-S" transform="matrix(5.065708520833328 0 0 5.065708520833328 3072.7615 599.9820)">
      <path d="M0 20.084c.043.53.23 1.063.718 1.778.58.849 1.576 1.315 2.303.567.49-.505 5.794-9.776 8.35-13.29a.761.761 0 011.248 0c2.556 3.514 7.86 12.785 8.35 13.29.727.748 1.723.282 2.303-.567.57-.835.728-1.42.728-2.046 0-.426-8.26-15.798-9.092-17.078-.8-1.23-1.044-1.498-2.397-1.542h-1.032c-1.353.044-1.597.311-2.398 1.542C8.267 3.991.33 18.758 0 19.77Z"/>
    </g>
    <g id="Black-M" transform="matrix(5.0657804166666685 0 0 5.0657804166666685 3072.7606 1029.9806)">
      <path d="M0 20.084c.043.53.23 1.063.718 1.778.58.849 1.576 1.315 2.303.567.49-.505 5.794-9.776 8.35-13.29a.761.761 0 011.248 0c2.556 3.514 7.86 12.785 8.35 13.29.727.748 1.723.282 2.303-.567.57-.835.728-1.42.728-2.046 0-.426-8.26-15.798-9.092-17.078-.8-1.23-1.044-1.498-2.397-1.542h-1.032c-1.353.044-1.597.311-2.398 1.542C8.267 3.991.33 18.758 0 19.77Z"/>
    </g>
    <g id="Black-L" transform="matrix(5.0657804166666685 0 0 5.0657804166666685 3072.7606 1459.9806)">
      <path d="M0 20.084c.043.53.23 1.063.718 1.778.58.849 1.576 1.315 2.303.567.49-.505 5.794-9.776 8.35-13.29a.761.761 0 011.248 0c2.556 3.514 7.86 12.785 8.35 13.29.727.748 1.723.282 2.303-.567.57-.835.728-1.42.728-2.046 0-.426-8.26-15.798-9.092-17.078-.8-1.23-1.044-1.498-2.397-1.542h-1.032c-1.353.044-1.597.311-2.398 1.542C8.267 3.991.33 18.758 0 19.77Z"/>
    </g>
  </g>
</svg>
